# xmcd
#
# Track frame offsets:
#       150
#       26818
#       46907
#       71800
#       94105
#       111010
#       133237
#       155881
#       175823
#       190409
#       209370
#       217430
#
# Disc length: 3338 seconds
#
# Revision: 1
# Processed by: cddbd v1.5.1PL0 Copyright (c) Steve Scherf et al.
# Submitted via: CD-DA_X-Tractor v0.24
#
DISCID=c00d080c
DTITLE=Harpo - Ahavat Yisrael
DYEAR=1900
DGENRE=Jewish Music
TTITLE0=Ahavat Yisrael
TTITLE1=Lekol Echad
TTITLE2=Shifchi
TTITLE3=Tzama Lecha
TTITLE4=Sham
TTITLE5=Yevarechecha
TTITLE6=Kol Haneshama
TTITLE7=Kan Baniti
TTITLE8=Zrika
TTITLE9=Shma Kolam
TTITLE10=Ahavat Yisrael Revisted
TTITLE11=Bonus Track Ahavat Yisrael
EXTD=
EXTT0=
EXTT1=
EXTT2=
EXTT3=
EXTT4=
EXTT5=
EXTT6=
EXTT7=
EXTT8=
EXTT9=
EXTT10=
EXTT11=
PLAYORDER=
